<svg width="27" height="25" viewBox="0 0 27 25" fill="none" xmlns="http://www.w3.org/2000/svg">
<g opacity="0.71">
<path d="M7.875 11.4583V7.29165C7.875 5.91031 8.46763 4.58555 9.52252 3.6088C10.5774 2.63205 12.0082 2.08331 13.5 2.08331C14.9918 2.08331 16.4226 2.63205 17.4775 3.6088C18.5324 4.58555 19.125 5.91031 19.125 7.29165V11.4583M5.625 11.4583H21.375C22.6176 11.4583 23.625 12.3911 23.625 13.5416V20.8333C23.625 21.9839 22.6176 22.9166 21.375 22.9166H5.625C4.38236 22.9166 3.375 21.9839 3.375 20.8333V13.5416C3.375 12.3911 4.38236 11.4583 5.625 11.4583Z" stroke="#1E1E1E" stroke-width="2.5" stroke-linecap="round" stroke-linejoin="round"/>
</g>
</svg>
