<svg width="35" height="39" viewBox="0 0 35 39" fill="none" xmlns="http://www.w3.org/2000/svg">
<path d="M28.8905 2.66504C32.7045 5.04834 34.5912 8.99473 32.8847 11.591C31.1783 14.1867 26.7125 14.163 22.8988 11.7796C22.096 11.2782 21.3692 10.7003 20.7396 10.0691C19.5933 11.9607 17.8074 13.7299 15.6057 15.1058C10.2336 18.463 3.99213 18.4959 1.65323 14.9379C-0.685601 11.3796 1.95147 5.86422 7.32346 2.50744C12.0397 -0.439919 17.4645 -0.840317 20.2978 1.57593C22.464 0.359504 25.8978 0.794674 28.8905 2.66504ZM28.0271 3.97843C25.2653 2.25241 22.18 1.99278 20.7178 3.1843C20.3841 3.45623 19.8887 3.41841 19.6025 3.09918C17.5758 0.83893 12.6128 1.05492 8.18686 3.82087C3.46569 6.77093 1.24221 11.4213 3.00034 14.0962C4.75842 16.7706 10.0212 16.7429 14.7423 13.7925C17.0964 12.3213 18.9094 10.3696 19.8471 8.37343C20.0973 7.84065 20.8382 7.75713 21.2066 8.22021C21.8749 9.0605 22.7459 9.83144 23.7621 10.4662C26.9251 12.4429 30.4121 12.4614 31.5377 10.7492C32.6635 9.0364 31.1903 5.95498 28.0272 3.97839L28.0271 3.97843ZM23.1677 27.6303C22.266 29.8008 20.0992 31.251 17.656 31.251C15.1303 31.251 12.9058 29.7014 12.0624 27.4228C11.9124 27.0176 11.454 26.8077 11.0384 26.9539C10.6228 27.1001 10.4075 27.5472 10.5574 27.9524C11.628 30.8445 14.4507 32.811 17.6559 32.811C20.7564 32.811 23.5062 30.9706 24.6506 28.216C24.8165 27.8168 24.619 27.362 24.2095 27.2002C23.8 27.0385 23.3336 27.2311 23.1677 27.6303ZM14.857 21.5082C14.857 22.872 13.723 23.9777 12.3242 23.9777C10.9258 23.9777 9.79182 22.872 9.79182 21.5082C9.79182 20.1443 10.9258 19.0391 12.3242 19.0391C13.723 19.0391 14.857 20.1443 14.857 21.5082ZM26.0303 21.5082C26.0303 22.872 24.8963 23.9777 23.4979 23.9777C22.0991 23.9777 20.9651 22.872 20.9651 21.5082C20.9651 20.1443 22.099 19.0391 23.4979 19.0391C24.8963 19.0391 26.0303 20.1443 26.0303 21.5082Z" fill="#CF1E25"/>
<path d="M30.423 13.5014C32.3319 16.0575 33.3761 19.1328 33.3761 22.3636C33.3761 30.69 26.4522 37.4402 17.9113 37.4402C9.37008 37.4402 2.44609 30.69 2.44609 22.3636C2.44609 20.1462 2.93734 17.9976 3.87308 16.0297C4.0589 15.6389 3.88461 15.1752 3.48379 14.994C3.08297 14.8128 2.60734 14.9827 2.42152 15.3735C1.38851 17.546 0.84613 19.9183 0.84613 22.3636C0.84613 31.5517 8.48648 39.0002 17.9113 39.0002C27.3358 39.0002 34.9761 31.5516 34.9761 22.3636C34.9761 18.8 33.823 15.4039 31.7164 12.5831C31.4564 12.2348 30.956 12.1581 30.5988 12.4117C30.2416 12.6653 30.1629 13.1531 30.423 13.5014Z" fill="#CF1E25"/>
</svg>
