<svg width="38" height="38" viewBox="0 0 38 38" fill="none" xmlns="http://www.w3.org/2000/svg">
<path d="M23.9125 26.3519C23.1299 28.283 21.2505 29.5732 19.1311 29.5732C16.9408 29.5732 15.0112 28.1943 14.2798 26.1673C14.1373 25.7725 13.7018 25.5679 13.3069 25.7104C12.9121 25.8528 12.7075 26.2884 12.85 26.6832C13.7971 29.3081 16.2952 31.0932 19.1311 31.0932C21.8749 31.0932 24.3081 29.4228 25.3212 26.9227C25.4788 26.5337 25.2913 26.0906 24.9022 25.933C24.5132 25.7753 24.0701 25.9629 23.9125 26.3519ZM16.4752 21.2299C16.4752 22.4569 15.4807 23.4514 14.2537 23.4514C13.0271 23.4514 12.0322 22.4569 12.0322 21.2299C12.0322 20.0029 13.0271 19.0084 14.2537 19.0084C15.4807 19.0084 16.4752 20.0029 16.4752 21.2299ZM26.2763 21.2299C26.2763 22.4569 25.2819 23.4514 24.0545 23.4514C22.8278 23.4514 21.8334 22.4569 21.8334 21.2299C21.8334 20.0029 22.8278 19.0084 24.0545 19.0084C25.2819 19.0084 26.2763 20.0029 26.2763 21.2299Z" fill="black"/>
<path d="M30.7536 15.6507C31.996 17.7261 32.6615 20.1007 32.6615 22.5749C32.6615 30.0334 26.614 36.0801 19.1544 36.0801C11.6946 36.0801 5.64732 30.0335 5.64732 22.5749C5.64732 19.9996 6.36854 17.533 7.70863 15.4002C7.93192 15.0448 7.82486 14.5756 7.46943 14.3523C7.11399 14.129 6.64489 14.2361 6.42157 14.5915C4.93037 16.9648 4.12732 19.7113 4.12732 22.5749C4.12732 30.873 10.8552 37.6001 19.1544 37.6001C27.4534 37.6001 34.1815 30.8729 34.1815 22.5749C34.1815 19.8238 33.4404 17.1798 32.0577 14.8699C31.8422 14.5098 31.3754 14.3926 31.0153 14.6082C30.6551 14.8238 30.538 15.2905 30.7536 15.6507Z" fill="black"/>
<path d="M6.48574 28.5581H2.02909C1.74795 28.5581 1.51988 28.3301 1.51988 28.0489V19.9264C1.51988 10.1803 9.42028 2.27992 19.1663 2.27992C28.7283 2.27992 36.4799 10.0317 36.4799 19.5939V28.0489C36.4799 28.3303 36.252 28.5581 35.9703 28.5581H32.032C31.6122 28.5581 31.272 28.8983 31.272 29.3181C31.272 29.7378 31.6122 30.0781 32.032 30.0781H35.9703C37.0914 30.0781 37.9999 29.1698 37.9999 28.0489V19.5939C37.9999 9.19221 29.5678 0.759918 19.1663 0.759918C8.58083 0.759918 -0.00012207 9.34087 -0.00012207 19.9264V28.0489C-0.00012207 29.1696 0.908538 30.0781 2.02909 30.0781H6.48574C6.90549 30.0781 7.24574 29.7378 7.24574 29.3181C7.24574 28.8983 6.90549 28.5581 6.48574 28.5581Z" fill="black"/>
<path d="M7.09911 15.7793H31.2333C31.653 15.7793 31.9933 15.439 31.9933 15.0193C31.9933 14.5995 31.653 14.2593 31.2333 14.2593H7.09911C6.67937 14.2593 6.33911 14.5995 6.33911 15.0193C6.33911 15.439 6.67937 15.7793 7.09911 15.7793Z" fill="black"/>
</svg>
