<svg width="18" height="17" viewBox="0 0 18 17" fill="none" xmlns="http://www.w3.org/2000/svg">
<path d="M16.0312 0.375C17.0859 0.375 18 1.28906 18 2.34375V13.0312C18 14.7539 16.5938 16.125 14.9062 16.125H2.53125C1.125 16.125 0 15 0 13.5938V3.1875C0 2.73047 0.351562 2.34375 0.84375 2.34375C1.30078 2.34375 1.6875 2.73047 1.6875 3.1875V13.5938C1.6875 14.0859 2.03906 14.4375 2.53125 14.4375C2.98828 14.4375 3.375 14.0859 3.375 13.5938V2.34375C3.375 1.28906 4.25391 0.375 5.34375 0.375H16.0312ZM16.3125 13.0312V2.34375C16.3125 2.20312 16.1719 2.0625 16.0312 2.0625H5.34375C5.16797 2.0625 5.0625 2.20312 5.0625 2.34375V13.5938C5.0625 13.9102 4.99219 14.1914 4.88672 14.4375H14.9062C15.6797 14.4375 16.3125 13.8398 16.3125 13.0312ZM9.28125 8.8125C9.73828 8.8125 10.125 9.19922 10.125 9.65625C10.125 10.1484 9.73828 10.5 9.28125 10.5H7.03125C6.53906 10.5 6.1875 10.1484 6.1875 9.65625C6.1875 9.19922 6.53906 8.8125 7.03125 8.8125H9.28125ZM14.3438 8.8125C14.8008 8.8125 15.1875 9.19922 15.1875 9.65625C15.1875 10.1484 14.8008 10.5 14.3438 10.5H12.0938C11.6016 10.5 11.25 10.1484 11.25 9.65625C11.25 9.19922 11.6016 8.8125 12.0938 8.8125H14.3438ZM9.28125 11.625C9.73828 11.625 10.125 12.0117 10.125 12.4688C10.125 12.9609 9.73828 13.3125 9.28125 13.3125H7.03125C6.53906 13.3125 6.1875 12.9609 6.1875 12.4688C6.1875 12.0117 6.53906 11.625 7.03125 11.625H9.28125ZM14.3438 11.625C14.8008 11.625 15.1875 12.0117 15.1875 12.4688C15.1875 12.9609 14.8008 13.3125 14.3438 13.3125H12.0938C11.6016 13.3125 11.25 12.9609 11.25 12.4688C11.25 12.0117 11.6016 11.625 12.0938 11.625H14.3438ZM14.0625 3.1875C14.6602 3.1875 15.1875 3.71484 15.1875 4.3125V6.5625C15.1875 7.19531 14.6602 7.6875 14.0625 7.6875H7.3125C6.67969 7.6875 6.1875 7.19531 6.1875 6.5625V4.3125C6.1875 3.71484 6.67969 3.1875 7.3125 3.1875H14.0625Z" fill="#1667A8"/>
</svg>
