<svg width="18" height="17" viewBox="0 0 18 17" fill="none" xmlns="http://www.w3.org/2000/svg">
<path d="M1.125 0.375C1.72266 0.375 2.25 0.902344 2.25 1.5V13.3125C2.25 13.6289 2.49609 13.875 2.8125 13.875H16.875C17.4727 13.875 18 14.4023 18 15C18 15.6328 17.4727 16.125 16.875 16.125H2.8125C1.23047 16.125 0 14.8945 0 13.3125V1.5C0 0.902344 0.492188 0.375 1.125 0.375ZM5.625 7.125C6.22266 7.125 6.75 7.65234 6.75 8.25V10.5C6.75 11.1328 6.22266 11.625 5.625 11.625C4.99219 11.625 4.5 11.1328 4.5 10.5V8.25C4.5 7.65234 4.99219 7.125 5.625 7.125ZM10.125 10.5C10.125 11.1328 9.59766 11.625 9 11.625C8.36719 11.625 7.875 11.1328 7.875 10.5V4.875C7.875 4.27734 8.36719 3.75 9 3.75C9.59766 3.75 10.125 4.27734 10.125 4.875V10.5ZM12.375 6C12.9727 6 13.5 6.52734 13.5 7.125V10.5C13.5 11.1328 12.9727 11.625 12.375 11.625C11.7422 11.625 11.25 11.1328 11.25 10.5V7.125C11.25 6.52734 11.7422 6 12.375 6ZM16.875 10.5C16.875 11.1328 16.3477 11.625 15.75 11.625C15.1172 11.625 14.625 11.1328 14.625 10.5V2.625C14.625 2.02734 15.1172 1.5 15.75 1.5C16.3477 1.5 16.875 2.02734 16.875 2.625V10.5Z" fill="#1667A8"/>
</svg>
